<svg width="50" height="50" viewBox="0 0 50 50" fill="none" xmlns="http://www.w3.org/2000/svg">
<path d="M16.4834 3.21191L13.2998 6.38867L15.3799 8.45605L18.5537 5.28125L16.4834 3.21191ZM19.7939 6.52832L18.8271 7.49609L30.8389 19.5117L31.8057 18.5449L19.7939 6.52832ZM35.3604 8.29199C34.999 8.29199 34.6377 8.30176 34.2959 8.32129C31.1807 8.49512 28.7588 9.46973 26.6494 10.8984L33.0459 17.3047C33.3877 18.0176 38.124 26.6992 39.4424 29.3457C38.4951 28.7207 27.3916 22.959 27.3916 22.959L25.8975 21.4746V35.1758C28.2314 33.75 30.79 32.4707 34.0615 32.1289C37.7236 31.7383 42.2158 32.5488 48.1436 35.3613V11.5918C43.0947 9.34668 39.0322 8.37988 35.7217 8.30176C35.5947 8.30176 35.4775 8.29102 35.3604 8.29199ZM12.8213 8.39258C9.80371 8.68457 6.19434 9.66797 1.85938 11.5918V35.3613C7.79688 32.5488 12.2842 31.7383 15.9463 32.1289C19.1689 32.6367 21.6201 33.6719 24.1104 35.1758V19.6875C20.3408 15.9277 16.5811 12.1582 12.8213 8.39258ZM17.5869 8.73926L16.6201 9.70508L28.6318 21.7188L29.5986 20.752L17.5869 8.73926ZM32.8115 20.0293L30.126 22.7148L35.5068 25.4102L32.8115 20.0293ZM14.042 33.8574C10.917 33.8867 7.02539 34.8145 1.85938 37.3731V41.5234C7.79688 38.7109 12.2842 37.9004 15.9463 38.291C17.7627 38.4863 19.3545 38.9648 20.8096 39.5898C20.3506 40.1856 19.9014 40.8887 19.4521 41.709H30.8975C30.3115 40.9082 29.7451 40.2051 29.1689 39.5996C30.6338 38.9648 32.2354 38.4863 34.0615 38.291C37.7236 37.9004 42.2158 38.7109 48.1436 41.5234V37.3731C42.958 34.8047 39.0518 33.8672 35.917 33.8574H35.6143C35.1455 33.8672 34.6963 33.8965 34.2568 33.9453C30.9365 34.2969 28.4365 35.7031 25.8975 37.3047C25.3408 37.2266 24.6279 37.1289 24.1104 37.2168C21.4541 35.6348 18.4268 34.2481 15.7607 33.9453C15.2139 33.8867 14.6377 33.8574 14.042 33.8574Z" fill="#D10000"/>
</svg>
