<svg width="50" height="50" viewBox="0 0 50 50" fill="none" xmlns="http://www.w3.org/2000/svg">
<path fill-rule="evenodd" clip-rule="evenodd" d="M16.766 11.568C16.4015 11.203 15.9686 10.9134 15.492 10.7157C15.0155 10.518 14.5047 10.4162 13.9888 10.416C13.473 10.4158 12.9621 10.5173 12.4854 10.7146C12.0088 10.9119 11.5756 11.2012 11.2108 11.5659L10.4775 12.2993C9.76841 12.097 9.01803 12.089 8.30482 12.2761C7.59161 12.4632 6.94178 12.8385 6.42331 13.3628C5.64444 14.1496 5.20754 15.212 5.20754 16.3191C5.20754 17.4262 5.64444 18.4885 6.42331 19.2753L7.29102 20.1493V31.2503H4.16602V33.3336H6.30143C5.78412 33.8405 5.42948 34.49 5.28276 35.1992C5.13604 35.9084 5.20387 36.6453 5.47761 37.3158C5.75135 37.9863 6.21859 38.5601 6.81975 38.964C7.42091 39.3679 8.12875 39.5836 8.85299 39.5836C9.57724 39.5836 10.2851 39.3679 10.8862 38.964C11.4874 38.5601 11.9546 37.9863 12.2284 37.3158C12.5021 36.6453 12.57 35.9084 12.4232 35.1992C12.2765 34.49 11.9219 33.8405 11.4046 33.3336H38.5941C38.0768 33.8405 37.7222 34.49 37.5755 35.1992C37.4287 35.9084 37.4966 36.6453 37.7703 37.3158C38.0441 37.9863 38.5113 38.5601 39.1125 38.964C39.7136 39.3679 40.4215 39.5836 41.1457 39.5836C41.8699 39.5836 42.5778 39.3679 43.1789 38.964C43.7801 38.5601 44.2473 37.9863 44.5211 37.3158C44.7948 36.6453 44.8627 35.9084 44.7159 35.1992C44.5692 34.49 44.2146 33.8405 43.6973 33.3336H45.8327V31.2503H41.666V28.0076C42.5607 27.784 43.3547 27.2671 43.9211 26.5394C44.4876 25.8117 44.7938 24.9152 44.791 23.993C44.791 21.7118 42.9566 19.8607 40.6931 19.8607H18.8639C18.8217 19.8612 18.7798 19.8532 18.7408 19.8371C18.7018 19.821 18.6664 19.7971 18.6368 19.767L18.2556 19.3816L18.64 18.9993C19.0049 18.6346 19.2945 18.2017 19.492 17.7251C19.6896 17.2486 19.7914 16.7378 19.7914 16.2219C19.7915 15.706 19.69 15.1951 19.4926 14.7185C19.2952 14.2419 19.0058 13.8088 18.641 13.4441L16.766 11.568ZM16.7868 17.9045L17.1671 17.5253C17.3384 17.3541 17.4743 17.1508 17.5671 16.927C17.6598 16.7032 17.7075 16.4634 17.7075 16.2211C17.7075 15.9789 17.6598 15.7391 17.5671 15.5153C17.4743 15.2915 17.3384 15.0882 17.1671 14.917L15.2921 13.042C15.121 12.8705 14.9178 12.7344 14.6941 12.6415C14.4704 12.5486 14.2306 12.5007 13.9883 12.5005C13.7461 12.5003 13.5062 12.5478 13.2824 12.6404C13.0585 12.7329 12.8551 12.8687 12.6837 13.0399L12.3191 13.4045L16.7868 17.9045ZM39.5827 31.2503H9.37435V22.2461L14.8691 27.7784C15.09 28.0003 15.3879 28.1253 15.6993 28.1253H39.5827V31.2503Z" fill="#D10000"/>
</svg>
