<svg width="31" height="31" viewBox="0 0 31 31" fill="none" xmlns="http://www.w3.org/2000/svg">
<path d="M4.51099 0.586054C4.60748 0.586072 4.70397 0.586062 4.80046 0.586026C5.00704 0.585993 5.21362 0.586189 5.4202 0.586548C5.71887 0.587066 6.01754 0.587228 6.31622 0.587307C6.80096 0.587445 7.28569 0.587865 7.77043 0.588466C8.24092 0.589049 8.7114 0.589497 9.18189 0.589765C9.22549 0.58979 9.22549 0.58979 9.26998 0.589816C9.41583 0.589898 9.56168 0.589978 9.70754 0.590057C10.9148 0.590712 12.1221 0.591831 13.3294 0.593245C13.2676 0.71866 13.2057 0.844076 13.142 0.973292C13.1172 0.973292 13.0925 0.973292 13.067 0.973292C13.0606 0.990928 13.0542 1.00856 13.0477 1.02674C12.9833 1.19802 12.9038 1.35273 12.8046 1.51169C12.7798 1.51169 12.7551 1.51169 12.7296 1.51169C12.7157 1.55088 12.7157 1.55088 12.7015 1.59087C12.6475 1.71856 12.5782 1.83484 12.5047 1.95508C12.4765 2.00255 12.4483 2.05006 12.4203 2.0976C12.3987 2.13418 12.377 2.17076 12.3547 2.20844C12.33 2.20844 12.3052 2.20844 12.2797 2.20844C12.2759 2.22526 12.2721 2.24208 12.2682 2.25941C12.2346 2.35737 12.1823 2.44232 12.1274 2.53307C12.1069 2.5672 12.0863 2.60133 12.0652 2.63649C12.0415 2.67544 12.0415 2.67544 12.0173 2.71517C11.9926 2.71517 11.9678 2.71517 11.9423 2.71517C11.9368 2.73208 11.9313 2.74898 11.9256 2.76639C11.8527 2.97105 11.7402 3.13736 11.6049 3.31692C11.5657 3.37008 11.5265 3.42326 11.4876 3.47654C11.4498 3.52816 11.4117 3.57966 11.3737 3.63115C11.3074 3.72516 11.2501 3.82069 11.1925 3.91866C11.1277 4.01427 11.0611 4.10894 10.9945 4.20369C10.9312 4.29714 10.8735 4.39196 10.8176 4.48873C10.7929 4.48873 10.7682 4.48873 10.7427 4.48873C10.7023 4.57273 10.6641 4.65606 10.6302 4.74209C10.6054 4.74209 10.5807 4.74209 10.5552 4.74209C10.5456 4.76863 10.5361 4.79517 10.5262 4.82251C10.4758 4.94263 10.4131 5.05254 10.3443 5.16569C10.3261 5.19612 10.3261 5.19612 10.3074 5.22717C10.2777 5.27667 10.2478 5.3261 10.2178 5.3755C10.1931 5.3755 10.1683 5.3755 10.1428 5.3755C10.1428 5.39641 10.1428 5.41731 10.1428 5.43885C10.1181 5.43885 10.0933 5.43885 10.0678 5.43885C10.0631 5.47118 10.0631 5.47118 10.0582 5.50417C10.0232 5.62113 9.95752 5.71625 9.88509 5.81889C9.8719 5.838 9.8587 5.8571 9.84511 5.87679C9.7874 5.96016 9.72872 6.04298 9.66923 6.12545C9.60862 6.21236 9.55832 6.30185 9.50785 6.39317C9.46802 6.4523 9.46802 6.4523 9.4109 6.50043C9.32192 6.5758 9.28932 6.67136 9.24308 6.76901C9.23071 6.78991 9.21834 6.81081 9.20559 6.83235C9.18085 6.83235 9.15611 6.83235 9.13061 6.83235C9.13061 6.85325 9.13061 6.87416 9.13061 6.89569C9.10587 6.89569 9.08113 6.89569 9.05564 6.89569C9.05172 6.9186 9.04781 6.9415 9.04377 6.9651C9.01568 7.0626 8.97228 7.1264 8.90802 7.21042C8.8236 7.32483 8.75919 7.4293 8.71823 7.56078C8.69349 7.56078 8.66874 7.56078 8.64325 7.56078C8.636 7.57988 8.62875 7.59899 8.62128 7.61867C8.61152 7.64398 8.60176 7.6693 8.5917 7.69537C8.58214 7.72036 8.57257 7.74534 8.56271 7.77109C8.53259 7.84157 8.49715 7.90628 8.4558 7.97249C8.43106 7.97249 8.40632 7.97249 8.38083 7.97249C8.36807 8.00973 8.36807 8.00973 8.35505 8.04771C8.31603 8.13876 8.2744 8.21599 8.2215 8.30107C8.08773 8.52102 7.9927 8.75376 7.89346 8.98595C7.86872 8.98595 7.84398 8.98595 7.81848 8.98595C7.81254 9.00898 7.8066 9.032 7.80047 9.05573C7.74304 9.26479 7.66686 9.45625 7.56587 9.65301C7.38371 10.0113 7.27045 10.3807 7.16945 10.7602C7.14973 10.8324 7.12736 10.904 7.10384 10.9753C7.0581 11.1253 7.04076 11.2798 7.01985 11.4334C7.00815 11.5192 6.99661 11.6037 6.97436 11.688C6.93553 11.87 6.94707 12.0576 6.94686 12.2421C6.9468 12.2759 6.9468 12.2759 6.94674 12.3103C6.94735 12.8457 6.98829 13.3767 7.18204 13.8896C7.2565 14.0936 7.30215 14.3048 7.34943 14.5144C7.39967 14.727 7.48838 14.9176 7.63104 15.0984C7.63104 15.1402 7.63104 15.182 7.63104 15.2251C7.65578 15.2251 7.68052 15.2251 7.70602 15.2251C7.71452 15.2505 7.72303 15.276 7.73179 15.3023C7.78366 15.4212 7.85028 15.5233 7.92641 15.6321C7.96676 15.6974 7.98878 15.7549 8.00593 15.8268C8.03067 15.8268 8.05542 15.8268 8.08091 15.8268C8.143 15.8974 8.143 15.8974 8.21212 15.9911C8.23493 16.0216 8.25774 16.0521 8.28124 16.0835C8.33682 16.1656 8.37996 16.2449 8.41831 16.3335C8.44306 16.3335 8.4678 16.3335 8.49329 16.3335C8.51417 16.3668 8.53505 16.4002 8.55656 16.4345C8.61301 16.519 8.66066 16.5699 8.744 16.6403C8.83391 16.7163 8.84011 16.742 8.86819 16.8403C8.9175 16.8625 8.96758 16.8835 9.01814 16.9036C9.13061 17.0122 9.13061 17.0122 9.13061 17.0936C9.15226 17.1015 9.17391 17.1093 9.19622 17.1174C9.29292 17.1628 9.35784 17.2135 9.43053 17.2836C9.43053 17.3046 9.43053 17.3255 9.43053 17.347C9.45218 17.3548 9.47383 17.3627 9.49614 17.3707C9.59303 17.4162 9.65323 17.4699 9.73044 17.537C9.87099 17.6433 9.87099 17.6433 10.0304 17.727C10.0304 17.7479 10.0304 17.7688 10.0304 17.7904C10.0551 17.7904 10.0798 17.7904 10.1053 17.7904C10.1053 17.8113 10.1053 17.8322 10.1053 17.8537C10.127 17.8629 10.1486 17.872 10.1709 17.8814C10.1988 17.8932 10.2266 17.9049 10.2553 17.9171C10.2808 17.9269 10.3063 17.9367 10.3326 17.9467C10.4053 17.9804 10.4053 17.9804 10.4568 18.0259C10.5202 18.0824 10.5202 18.0824 10.6302 18.1229C10.7427 18.1704 10.7427 18.1704 10.7914 18.2146C10.8798 18.2851 10.978 18.3218 11.0871 18.3664C11.1482 18.3916 11.1482 18.3916 11.2105 18.4172C11.2417 18.4298 11.2729 18.4425 11.305 18.4555C11.305 18.4764 11.305 18.4973 11.305 18.5188C11.3545 18.5188 11.404 18.5188 11.455 18.5188C11.455 18.5397 11.455 18.5606 11.455 18.5821C11.4777 18.5872 11.5004 18.5922 11.5238 18.5974C11.6926 18.6371 11.848 18.6813 12.0032 18.7504C12.3958 18.9218 12.8188 19.0336 13.2404 19.1423C13.274 19.1514 13.3077 19.1604 13.3423 19.1697C13.9888 19.3313 14.6574 19.3569 15.3272 19.3511C15.4436 19.3501 15.56 19.3498 15.6765 19.3497C16.5819 19.3467 17.4041 19.2495 18.2769 19.0475C18.3243 19.0365 18.3718 19.0256 18.4207 19.0143C18.4636 19.0043 18.5065 18.9943 18.5507 18.9839C18.6529 18.9622 18.6529 18.9622 18.7279 18.9622C18.7279 18.9413 18.7279 18.9204 18.7279 18.8988C18.7652 18.8902 18.7652 18.8902 18.8033 18.8814C19.0602 18.8206 19.0602 18.8206 19.2902 18.7088C19.3026 18.6879 19.315 18.667 19.3277 18.6455C19.3783 18.6227 19.4301 18.602 19.4824 18.5821C19.8862 18.4162 20.2519 18.1872 20.601 17.9503C20.7447 17.8537 20.7447 17.8537 20.8273 17.8537C20.8273 17.8328 20.8273 17.8119 20.8273 17.7904C20.8892 17.7475 20.9517 17.7053 21.0148 17.6637C21.0271 17.6428 21.0395 17.6219 21.0522 17.6004C21.1017 17.6004 21.1512 17.6004 21.2022 17.6004C21.2022 17.569 21.2022 17.5376 21.2022 17.5053C21.2549 17.4672 21.3079 17.4293 21.3626 17.3933C21.4527 17.3287 21.525 17.2545 21.5998 17.1775C21.6523 17.1251 21.7038 17.0759 21.7645 17.0303C21.7893 17.0303 21.814 17.0303 21.8395 17.0303C21.8488 17.0128 21.8581 16.9953 21.8676 16.9772C21.9234 16.8896 21.9907 16.8168 22.0645 16.7393C22.0907 16.7114 22.117 16.6835 22.1441 16.6548C22.2144 16.5869 22.2144 16.5869 22.2894 16.5552C22.3312 16.5029 22.3312 16.503 22.3691 16.4424C22.4039 16.3885 22.4039 16.3885 22.4394 16.3335C22.4641 16.3335 22.4888 16.3335 22.5143 16.3335C22.5244 16.3081 22.5344 16.2826 22.5448 16.2563C22.5595 16.2295 22.5742 16.2028 22.5893 16.1752C22.6264 16.1647 22.6635 16.1543 22.7018 16.1435C22.7057 16.1208 22.7096 16.0981 22.7136 16.0747C22.742 15.9755 22.7865 15.9057 22.8494 15.8189C22.8691 15.7913 22.8887 15.7637 22.909 15.7353C22.9642 15.6684 22.9642 15.6684 23.0392 15.6368C23.0786 15.5599 23.1148 15.4836 23.1493 15.4052C23.2095 15.2686 23.2701 15.1507 23.3766 15.035C23.4107 14.963 23.4107 14.963 23.4352 14.8886C23.4676 14.7955 23.4813 14.7565 23.564 14.6867C23.59 14.6154 23.613 14.5433 23.6343 14.4709C23.6819 14.313 23.7327 14.1571 23.7913 14.0018C23.9686 13.5207 24.0226 13.0671 24.0233 12.5647C24.0234 12.5318 24.0234 12.5318 24.0234 12.4983C24.0232 12.0514 23.9759 11.6137 23.9014 11.1712C23.897 11.1436 23.8926 11.1159 23.8881 11.0874C23.8397 10.7865 23.7628 10.5034 23.6485 10.2155C23.6018 10.0979 23.5641 9.97881 23.5265 9.85887C23.4748 9.70294 23.4098 9.57449 23.3103 9.43676C23.2384 9.32655 23.1943 9.20917 23.1477 9.08999C23.1186 9.01288 23.1186 9.01288 23.0392 8.95428C23.0141 8.90472 22.9909 8.85446 22.9689 8.80384C22.9085 8.67171 22.8346 8.56444 22.7393 8.44755C22.7117 8.39483 22.6841 8.34206 22.6583 8.2887C22.5717 8.11594 22.4773 7.94649 22.3433 7.79633C22.2736 7.71814 22.2261 7.64323 22.1816 7.55286C22.1236 7.43529 22.052 7.33422 21.9684 7.22823C21.8518 7.07842 21.7839 6.94133 21.7271 6.76901C21.7023 6.76901 21.6776 6.76901 21.6521 6.76901C21.6144 6.70707 21.577 6.64503 21.5396 6.58295C21.5083 6.53114 21.5083 6.53114 21.4763 6.47828C21.4271 6.38896 21.4271 6.38896 21.4271 6.32562C21.39 6.31517 21.3529 6.30472 21.3147 6.29395C21.286 6.24137 21.2577 6.18855 21.2327 6.13464C21.1833 6.03351 21.1175 5.9409 21.0522 5.8466C21.0394 5.82778 21.0265 5.80896 21.0133 5.78957C20.94 5.68258 20.8654 5.57633 20.7898 5.47052C20.649 5.27333 20.5096 5.07554 20.3729 4.87632C20.322 4.80217 20.2707 4.72822 20.2191 4.65438C20.1914 4.61434 20.1638 4.5743 20.1361 4.53425C20.1228 4.51538 20.1095 4.49651 20.0958 4.47707C20.0354 4.38903 20.0025 4.33903 20.0025 4.23536C19.9778 4.23536 19.9531 4.23536 19.9276 4.23536C19.8151 4.05326 19.8151 4.05326 19.8151 3.982C19.7904 3.982 19.7656 3.982 19.7401 3.982C19.719 3.94526 19.719 3.94526 19.6975 3.90777C19.5964 3.73396 19.493 3.56578 19.3683 3.40327C19.3101 3.32478 19.2643 3.24137 19.2153 3.15856C19.1868 3.11941 19.1579 3.0805 19.1286 3.04178C18.9814 2.84572 18.8422 2.64306 18.7373 2.42816C18.6976 2.33331 18.6976 2.33331 18.6154 2.27179C18.6154 2.22998 18.6154 2.18818 18.6154 2.1451C18.5907 2.1451 18.566 2.1451 18.5405 2.1451C18.3405 1.80728 18.1406 1.46946 17.9406 1.13164C18.0891 1.14732 18.0891 1.14732 18.2405 1.16332C18.2405 1.18422 18.2405 1.20512 18.2405 1.22666C18.3101 1.23939 18.3101 1.23939 18.3811 1.25239C18.5978 1.29296 18.8128 1.3389 19.0278 1.38501C19.0278 1.40591 19.0278 1.42681 19.0278 1.44835C19.1763 1.46403 19.1763 1.46403 19.3277 1.48002C19.3277 1.50092 19.3277 1.52183 19.3277 1.54336C19.349 1.5472 19.3704 1.55104 19.3923 1.55499C19.573 1.58812 19.7504 1.62545 19.9276 1.67004C19.9276 1.69095 19.9276 1.71185 19.9276 1.73339C20.0265 1.75429 20.1255 1.77519 20.2275 1.79673C20.2275 1.81763 20.2275 1.83853 20.2275 1.86007C20.3759 1.87575 20.3759 1.87575 20.5274 1.89174C20.5274 1.91264 20.5274 1.93354 20.5274 1.95508C20.556 1.95965 20.5846 1.96423 20.6141 1.96894C20.7148 1.98675 20.7148 1.98675 20.8273 2.01842C20.8397 2.03932 20.8521 2.06023 20.8648 2.08176C20.944 2.1105 20.944 2.1105 21.0358 2.13323C21.0823 2.1456 21.0823 2.1456 21.1297 2.15822C21.1536 2.16434 21.1776 2.17046 21.2022 2.17677C21.2022 2.19768 21.2022 2.21858 21.2022 2.24012C21.2517 2.24012 21.3012 2.24012 21.3522 2.24012C21.3522 2.26102 21.3522 2.28192 21.3522 2.30346C21.382 2.31056 21.4119 2.31766 21.4427 2.32498C21.6154 2.3787 21.7689 2.45233 21.9286 2.52911C21.9753 2.55134 21.9753 2.55134 22.023 2.57402C22.0994 2.61037 22.1757 2.64687 22.2519 2.6835C22.2519 2.70441 22.2519 2.72531 22.2519 2.74685C22.2813 2.75272 22.3107 2.7586 22.3409 2.76466C22.5013 2.81837 22.6246 2.89349 22.763 2.97943C22.8407 3.02537 22.9158 3.06176 23.0017 3.09522C23.0017 3.11612 23.0017 3.13703 23.0017 3.15856C23.0217 3.16677 23.0417 3.17497 23.0623 3.18343C23.1705 3.23001 23.2759 3.2799 23.3813 3.33077C23.4208 3.34967 23.4603 3.36858 23.5011 3.38805C23.6015 3.4436 23.6015 3.4436 23.6765 3.53861C23.7534 3.57637 23.7534 3.57637 23.8265 3.60195C23.8265 3.62285 23.8265 3.64376 23.8265 3.66529C23.8759 3.67574 23.9254 3.68619 23.9764 3.69696C23.9764 3.71787 23.9764 3.73877 23.9764 3.7603C23.9996 3.76357 24.0228 3.76684 24.0467 3.7702C24.1264 3.79197 24.1264 3.79197 24.2014 3.88699C24.2782 3.92475 24.2782 3.92475 24.3513 3.95033C24.3513 3.97123 24.3513 3.99213 24.3513 4.01367C24.373 4.01628 24.3946 4.01889 24.4169 4.02159C24.5246 4.05191 24.5744 4.1028 24.6512 4.17202C24.676 4.18247 24.7007 4.19292 24.7262 4.20369C24.7262 4.22459 24.7262 4.2455 24.7262 4.26703C24.7587 4.27977 24.7587 4.27977 24.7918 4.29277C24.8782 4.3313 24.9519 4.37165 25.0261 4.42539C25.0261 4.44629 25.0261 4.46719 25.0261 4.48873C25.047 4.49591 25.0679 4.5031 25.0894 4.5105C25.2003 4.5637 25.2745 4.63338 25.3635 4.71042C25.4046 4.73913 25.446 4.76751 25.4877 4.79554C25.521 4.81971 25.5542 4.84387 25.5885 4.86877C25.5885 4.88968 25.5885 4.91058 25.5885 4.93212C25.6256 4.94257 25.6627 4.95302 25.7009 4.96379C25.7009 4.98469 25.7009 5.00559 25.7009 5.02713C25.7334 5.03889 25.7334 5.03889 25.7665 5.05088C25.8632 5.09626 25.9282 5.14698 26.0008 5.21715C26.0008 5.23805 26.0008 5.25896 26.0008 5.28049C26.0233 5.28837 26.0457 5.29625 26.0688 5.30437C26.163 5.34969 26.2024 5.39346 26.2633 5.46854C26.3238 5.5429 26.3716 5.5946 26.4578 5.64879C26.4914 5.67028 26.4914 5.67028 26.5257 5.69221C26.5257 5.71311 26.5257 5.73402 26.5257 5.75555C26.5474 5.76253 26.5691 5.76951 26.5915 5.77671C26.7017 5.83192 26.7512 5.89803 26.8233 5.98714C26.9281 6.11327 27.0308 6.22031 27.163 6.32562C27.2755 6.44029 27.2755 6.44029 27.2755 6.51565C27.2975 6.52299 27.3196 6.53034 27.3423 6.53791C27.4461 6.58918 27.4902 6.64514 27.5567 6.72942C27.5793 6.75775 27.6019 6.78609 27.6252 6.81528C27.6459 6.84182 27.6666 6.86835 27.6879 6.89569C27.7108 6.92472 27.7108 6.92472 27.7341 6.95433C27.786 7.02002 27.786 7.02002 27.8378 7.08572C27.8703 7.12099 27.8703 7.12099 27.9034 7.15698C27.9503 7.2124 27.9503 7.2124 27.9503 7.27574C27.975 7.27574 27.9998 7.27574 28.0253 7.27574C28.1377 7.45784 28.1377 7.45785 28.1377 7.5291C28.1625 7.5291 28.1872 7.5291 28.2127 7.5291C28.2679 7.587 28.2679 7.587 28.3275 7.6637C28.3473 7.68869 28.3671 7.71367 28.3874 7.73942C28.4377 7.81414 28.4377 7.81414 28.4563 7.88095C28.48 7.95629 28.5228 7.9811 28.5876 8.03583C28.651 8.11556 28.7053 8.19957 28.761 8.28326C28.7839 8.31648 28.7839 8.31648 28.8073 8.35038C28.8926 8.47801 28.9465 8.5839 28.9625 8.73259C28.9873 8.73259 29.012 8.73259 29.0375 8.73259C29.15 8.9424 29.15 8.9424 29.15 9.04929C29.1747 9.04929 29.1994 9.04929 29.2249 9.04929C29.2566 9.09927 29.2877 9.14946 29.3187 9.19973C29.3361 9.22765 29.3535 9.25558 29.3714 9.28435C29.4124 9.366 29.4124 9.366 29.4124 9.49268C29.4371 9.49268 29.4619 9.49268 29.4874 9.49268C29.4996 9.52285 29.5118 9.55302 29.5244 9.5841C29.541 9.62423 29.5575 9.66436 29.5741 9.70448C29.5902 9.74379 29.6062 9.78311 29.6228 9.82361C29.6687 9.9229 29.7227 10.0036 29.7873 10.0944C29.8121 10.1552 29.8346 10.2166 29.8552 10.2785C29.9024 10.4143 29.9544 10.546 30.0166 10.6774C30.171 11.005 30.266 11.3427 30.3622 11.6853C30.3837 11.7611 30.4061 11.8366 30.4293 11.912C30.62 12.534 30.7419 13.1627 30.837 13.7999C30.8428 13.8376 30.8485 13.8752 30.8545 13.9141C31.0051 14.9318 31.0252 15.9948 30.8849 17.0142C30.8738 17.0989 30.865 17.1836 30.8568 17.2684C30.7724 18.1213 30.7724 18.1213 30.6495 18.3288C30.6396 18.3796 30.6313 18.4307 30.6239 18.4818C30.6193 18.5123 30.6147 18.5428 30.6099 18.5743C30.6005 18.6385 30.5911 18.7028 30.5818 18.767C30.5748 18.813 30.5748 18.813 30.5677 18.8599C30.5616 18.9018 30.5616 18.9018 30.5553 18.9446C30.5359 19.0306 30.502 19.1033 30.4621 19.1839C30.4382 19.2669 30.4157 19.3498 30.3941 19.4333C30.3111 19.7435 30.1968 20.041 30.0614 20.3379C30.0245 20.4224 29.9966 20.5002 29.9724 20.5873C29.9372 20.7041 29.9372 20.7041 29.8623 20.7991C29.8366 20.8728 29.8117 20.9467 29.7873 21.0208C29.6969 21.2352 29.592 21.4445 29.4874 21.6542C29.4626 21.6542 29.4379 21.6542 29.4124 21.6542C29.4124 21.696 29.4124 21.7378 29.4124 21.7809C29.3876 21.7809 29.3629 21.7809 29.3374 21.7809C29.3343 21.8063 29.3312 21.8318 29.328 21.8581C29.2923 22.0013 29.2243 22.1244 29.15 22.2559C29.1252 22.2559 29.1005 22.2559 29.075 22.2559C29.0709 22.2786 29.0669 22.3013 29.0627 22.3247C29.0353 22.4222 28.9928 22.4935 28.9344 22.5806C28.9143 22.6108 28.8942 22.6411 28.8735 22.6722C28.8534 22.7021 28.8333 22.7319 28.8126 22.7627C28.7781 22.8148 28.7438 22.8669 28.7095 22.919C28.695 22.9409 28.6805 22.9627 28.6655 22.9852C28.6384 23.0271 28.613 23.0698 28.5894 23.1131C28.5501 23.1744 28.5501 23.1744 28.4976 23.2173C28.4309 23.2753 28.3874 23.3337 28.3391 23.4034C28.3212 23.4288 28.3033 23.4542 28.2848 23.4804C28.2475 23.534 28.2102 23.5877 28.173 23.6415C28.1551 23.6667 28.1373 23.692 28.1189 23.7181C28.1027 23.7414 28.0865 23.7647 28.0699 23.7886C28.0551 23.8054 28.0404 23.8222 28.0253 23.8395C28.0005 23.8395 27.9758 23.8395 27.9503 23.8395C27.9379 23.8917 27.9256 23.944 27.9128 23.9978C27.8881 23.9978 27.8633 23.9978 27.8378 23.9978C27.8293 24.0141 27.8208 24.0305 27.8121 24.0473C27.7558 24.1356 27.6886 24.2128 27.6174 24.2929C27.5684 24.35 27.5685 24.35 27.5379 24.4412C27.5132 24.4412 27.4884 24.4412 27.4629 24.4412C27.4521 24.4595 27.4413 24.4778 27.4301 24.4966C27.3716 24.5956 27.3716 24.5956 27.313 24.6946C27.2882 24.6946 27.2635 24.6946 27.238 24.6946C27.2264 24.7142 27.2148 24.7338 27.2029 24.7539C27.1771 24.7975 27.1513 24.841 27.1255 24.8846C27.1008 24.8846 27.076 24.8846 27.0506 24.8846C27.0413 24.9016 27.032 24.9186 27.0224 24.9361C26.9641 25.0297 26.8993 25.1157 26.8256 25.2013C26.8009 25.2013 26.7761 25.2013 26.7506 25.2013C26.7414 25.2189 26.7321 25.2366 26.7225 25.2547C26.6671 25.3414 26.6031 25.4127 26.5257 25.4863C26.501 25.4863 26.4762 25.4863 26.4507 25.4863C26.4399 25.5053 26.4291 25.5242 26.4179 25.5437C26.3757 25.613 26.3757 25.613 26.3008 25.708C26.276 25.708 26.2513 25.708 26.2258 25.708C26.217 25.7258 26.2083 25.7436 26.1993 25.762C26.1388 25.8527 26.0639 25.913 25.9751 25.9851C25.8333 26.1023 25.7 26.2222 25.5707 26.3491C25.3606 26.5534 25.3606 26.5534 25.2136 26.5948C25.1878 26.6367 25.1628 26.679 25.1386 26.7215C25.0765 26.7754 25.0765 26.7754 25.0074 26.8244C24.9846 26.8409 24.9618 26.8574 24.9383 26.8744C24.8762 26.9115 24.8762 26.9115 24.8012 26.9115C24.8012 26.9324 24.8012 26.9533 24.8012 26.9748C24.7764 26.9748 24.7517 26.9748 24.7262 26.9748C24.7138 27.0062 24.7015 27.0376 24.6887 27.0699C24.6143 27.1127 24.5392 27.1549 24.4638 27.1965C24.4298 27.2253 24.3957 27.254 24.3607 27.2836C24.3329 27.3072 24.305 27.3307 24.2763 27.3549C24.2516 27.3549 24.2269 27.3549 24.2014 27.3549C24.2014 27.3862 24.2014 27.4176 24.2014 27.4499C24.1399 27.4783 24.1399 27.4783 24.0772 27.5073C23.9786 27.5545 23.9047 27.602 23.8265 27.6716C23.8017 27.6716 23.777 27.6716 23.7515 27.6716C23.7515 27.6925 23.7515 27.7134 23.7515 27.7349C23.6718 27.7829 23.6718 27.7829 23.564 27.8379C23.2545 27.997 23.2545 27.997 22.9822 28.1973C22.9007 28.2625 22.8081 28.2791 22.7018 28.305C22.7018 28.3259 22.7018 28.3468 22.7018 28.3684C22.6166 28.4164 22.6166 28.4164 22.5003 28.4713C22.3146 28.5599 22.1318 28.6514 21.9505 28.7463C21.877 28.7801 21.877 28.7801 21.802 28.7801C21.802 28.801 21.802 28.8219 21.802 28.8434C21.7318 28.8739 21.6615 28.9042 21.5912 28.9345C21.552 28.9514 21.5129 28.9683 21.4725 28.9857C21.359 29.0307 21.247 29.0655 21.1272 29.0968C21.1272 29.1177 21.1272 29.1386 21.1272 29.1601C21.053 29.1706 20.9788 29.181 20.9023 29.1918C20.9023 29.2127 20.9023 29.2336 20.9023 29.2551C20.8636 29.2662 20.825 29.2773 20.7851 29.2888C20.6033 29.3455 20.4328 29.4208 20.2622 29.4978C20.1369 29.5528 20.0726 29.5718 19.9276 29.5718C19.9276 29.5927 19.9276 29.6136 19.9276 29.6352C19.8286 29.6456 19.7296 29.6561 19.6276 29.6668C19.6276 29.6878 19.6276 29.7087 19.6276 29.7302C19.5913 29.7394 19.555 29.7486 19.5175 29.7582C19.4668 29.7713 19.416 29.7844 19.3652 29.7975C19.3416 29.8034 19.3181 29.8094 19.2938 29.8155C19.1353 29.8567 18.981 29.9036 18.8266 29.9546C18.4614 30.0745 18.0912 30.1603 17.711 30.2389C17.6622 30.2491 17.6622 30.2491 17.6125 30.2595C16.175 30.559 14.7291 30.6842 13.251 30.6868C13.1465 30.687 13.042 30.6873 12.9376 30.6876C12.594 30.6887 12.2504 30.6893 11.9068 30.6899C11.8172 30.6901 11.7275 30.6902 11.6379 30.6904C11.079 30.6914 10.5201 30.6922 9.96124 30.6928C9.83229 30.6929 9.70334 30.693 9.5744 30.6931C9.54236 30.6932 9.51032 30.6932 9.47731 30.6932C8.95882 30.6938 8.44034 30.6951 7.92185 30.6967C7.38741 30.6983 6.85298 30.6992 6.31854 30.6995C6.01932 30.6996 5.72011 30.7001 5.42089 30.7014C5.16601 30.7025 4.91114 30.7029 4.65625 30.7025C4.52666 30.7023 4.39711 30.7024 4.26753 30.7034C3.60768 30.7075 3.01657 30.6483 2.38252 30.4903C2.38252 30.4694 2.38252 30.4485 2.38252 30.4269C2.30829 30.4165 2.23406 30.406 2.15758 30.3953C2.15758 30.3744 2.15758 30.3535 2.15758 30.3319C2.12627 30.3261 2.12627 30.326 2.09432 30.3201C1.94973 30.287 1.83258 30.2439 1.70771 30.1736C1.70771 30.1527 1.70771 30.1318 1.70771 30.1102C1.68683 30.1017 1.66596 30.0933 1.64445 30.0845C1.47928 30.0129 1.33623 29.9331 1.19692 29.8292C1.1686 29.8083 1.14028 29.7875 1.1111 29.7661C1.02961 29.6957 0.97858 29.6251 0.920432 29.5402C0.887183 29.5121 0.853935 29.484 0.819679 29.4551C0.79107 29.4309 0.762461 29.4067 0.732985 29.3818C0.732985 29.3609 0.732985 29.34 0.732985 29.3185C0.708242 29.3185 0.683499 29.3185 0.658006 29.3185C0.572934 29.2183 0.504358 29.1093 0.433069 29.0018C0.409945 28.9678 0.409945 28.9678 0.386354 28.9332C0.291679 28.7862 0.259741 28.662 0.245622 28.495C0.220879 28.495 0.196136 28.495 0.170643 28.495C0.0156183 27.9634 -0.000991462 27.443 0.00142109 26.8986C0.00180612 26.7736 0.00131096 26.6486 0.000934852 26.5236C0.000396396 26.3051 0.000407602 26.0866 0.000791841 25.8681C0.00136166 25.5432 0.00106759 25.2183 0.000610504 24.8934C-0.000177207 24.3131 -0.000111418 23.7327 0.00032248 23.1523C0.000700247 22.6444 0.000798016 22.1366 0.000619084 21.6288C0.00060763 21.5951 0.000596277 21.5613 0.000584476 21.5266C0.000537786 21.3896 0.000489808 21.2527 0.000440321 21.1157C-1.7967e-05 19.8323 0.000397062 18.5488 0.00120486 17.2653C0.0019167 16.1256 0.00185247 14.9858 0.00113564 13.8461C0.000332361 12.5647 1.4537e-05 11.2832 0.00047779 10.0018C0.000525882 9.86517 0.00057267 9.72853 0.000619084 9.59189C0.000630943 9.55825 0.000642905 9.52461 0.000655123 9.48995C0.000825542 8.9824 0.000626398 8.47484 0.000247256 7.96729C-0.000181704 7.39019 -7.391e-05 6.81308 0.000739213 6.23597C0.00117905 5.91317 0.0012089 5.59037 0.000642252 5.26756C0.000305278 5.05177 0.000516684 4.83598 0.00116796 4.62018C0.00152361 4.49735 0.00164885 4.37453 0.00110704 4.25171C-0.00269016 3.32324 -0.0026902 3.32324 0.170643 2.9052C0.183081 2.87266 0.195519 2.84012 0.208333 2.80659C0.33237 2.48893 0.514468 2.1497 0.770474 1.89174C0.795217 1.89174 0.81996 1.89174 0.845453 1.89174C0.855505 1.86626 0.865557 1.84079 0.875913 1.81454C0.890604 1.78776 0.905295 1.76098 0.920432 1.73339C0.976104 1.71771 0.976104 1.71771 1.0329 1.70172C1.0329 1.68081 1.0329 1.65991 1.0329 1.63837C1.05764 1.63837 1.08239 1.63837 1.10788 1.63837C1.11638 1.62074 1.12489 1.6031 1.13365 1.58493C1.23353 1.43628 1.39583 1.32648 1.55775 1.22666C1.58249 1.22666 1.60724 1.22666 1.63273 1.22666C1.63273 1.20575 1.63273 1.18485 1.63273 1.16332C2.51725 0.625168 3.45793 0.583303 4.51099 0.586054Z" fill="#333333"/>
</svg>
