<svg width="50" height="50" viewBox="0 0 50 50" fill="none" xmlns="http://www.w3.org/2000/svg">
<path d="M43.7493 14.583C41.666 14.583 41.666 12.4997 41.666 12.4997V10.4163H37.4993V14.583H33.3327V12.4997C33.3327 8.89551 30.7285 2.08301 20.8327 2.08301C10.9368 2.08301 8.33268 8.89551 8.33268 12.4997V39.583C8.33268 40.2705 8.12435 43.7497 4.16602 43.7497V47.9163C10.2702 47.9163 12.4993 42.9372 12.4993 39.583V12.4997C12.4993 12.2497 12.6035 6.24967 20.8327 6.24967C28.8118 6.24967 29.166 11.8747 29.166 12.4997V14.583H24.9993V10.4163H20.8327V12.4997C20.8327 12.4997 20.8327 14.583 18.7493 14.583C16.666 14.583 16.666 16.6663 16.666 16.6663V41.6663C16.666 41.6663 16.666 45.833 27.0827 45.833H35.416C45.8327 45.833 45.8327 41.6663 45.8327 41.6663V16.6663C45.8327 16.6663 45.8327 14.583 43.7493 14.583ZM31.2493 40.4163C29.5917 40.4163 28.002 39.7579 26.8299 38.5858C25.6578 37.4137 24.9993 35.8239 24.9993 34.1663C24.9993 29.9997 31.2493 22.9163 31.2493 22.9163C31.2493 22.9163 37.4993 29.9997 37.4993 34.1663C37.4993 35.8239 36.8409 37.4137 35.6688 38.5858C34.4967 39.7579 32.9069 40.4163 31.2493 40.4163Z" fill="#D10000"/>
</svg>
